<svg xmlns="http://www.w3.org/2000/svg" width="150" height="50" viewBox="0,0,150,50"><path fill="#333" d="M70.71 34.74L70.63 34.66L70.74 34.76Q70.73 38.33 67.57 39.63L67.48 39.54L67.52 39.58Q65.70 40.46 61.29 40.62L61.13 40.47L61.23 40.56Q56.35 40.59 54.10 39.41L54.12 39.43L54.18 39.49Q52.36 38.20 52.51 34.85L52.49 34.83L52.54 34.88Q52.53 34.22 52.72 32.24L52.65 32.17L52.65 32.18Q52.73 30.54 52.73 29.55L52.91 29.73L52.73 29.54Q52.85 21.68 48.67 14.25L48.57 14.16L48.64 14.23Q49.74 14.83 52.71 15.89L52.83 16.02L52.84 16.03Q55.71 22.75 55.71 30.13L55.73 30.15L55.65 30.07Q55.57 30.60 55.47 31.78L55.52 31.82L55.52 31.83Q55.49 33.07 55.49 33.68L55.43 33.61L55.37 33.56Q55.49 35.97 57.05 36.96L56.99 36.90L57.05 36.96Q58.69 37.75 61.66 37.75L61.56 37.66L61.64 37.74Q64.29 37.75 65.92 36.57L65.85 36.50L65.87 36.52Q67.83 35.29 67.68 32.78L67.51 32.60L67.52 32.61Q67.44 31.23 67.44 29.90L67.43 29.90L67.41 29.88Q67.52 22.95 69.92 16.44L69.81 16.32L72.04 15.81L72.03 15.81Q73.04 15.56 74.15 15.10L74.17 15.12L74.21 15.17Q70.43 22.23 70.43 29.81L70.33 29.72L70.40 29.78Q70.42 30.64 70.55 32.27L70.47 32.20L70.53 32.26Q70.66 33.89 70.66 34.69ZM72.72 35.50L72.77 35.54L72.88 35.65Q71.85 30.55 72.57 25.44L72.64 25.51L72.76 25.63Q73.33 20.26 75.72 15.88L75.78 15.94L75.76 15.92Q75.11 16.18 73.66 16.83L73.63 16.79L73.81 16.98Q74.11 16.05 74.91 14.49L74.91 14.50L74.99 14.58Q71.39 15.66 69.49 16.00L69.47 15.99L69.47 15.98Q67.25 22.63 67.25 29.90L67.08 29.74L67.18 29.84Q67.09 31.11 67.16 32.52L67.16 32.52L67.23 32.59Q67.31 34.92 65.52 36.14L65.66 36.28L65.65 36.26Q64.08 37.24 61.57 37.28L61.64 37.36L61.60 37.31Q58.82 37.35 57.38 36.59L57.43 36.64L57.34 36.56Q57.37 36.17 57.29 35.71L57.14 35.56L57.20 35.62Q57.25 35.21 57.37 34.72L57.30 34.65L57.22 34.57Q57.62 32.42 57.62 30.09L57.53 30.01L57.47 29.95Q57.47 24.12 55.95 18.22L56.12 18.40L56.07 18.34Q55.22 18.11 53.81 17.77L53.99 17.94L53.85 17.80Q53.48 16.52 53.03 15.61L53.02 15.60L52.97 15.55Q50.36 14.88 47.96 13.51L47.91 13.46L47.95 13.50Q52.58 21.10 52.58 29.82L52.56 29.80L52.52 29.76Q52.55 31.42 52.40 33.13L52.43 33.17L52.45 33.19Q52.16 35.52 52.23 36.70L52.14 36.61L52.12 36.59Q52.43 38.69 53.69 39.83L53.61 39.76L53.67 39.81Q54.62 42.25 59.27 42.63L59.21 42.58L59.28 42.65Q61.37 42.80 63.51 42.87L63.56 42.93L63.46 42.83Q68.81 43.00 71.58 42.04L71.70 42.16L71.64 42.10Q73.20 41.18 73.20 39.13L73.19 39.12L73.33 39.26Q73.35 38.13 72.89 35.66Z"/><path fill="#111" d="M39.52 19.60L39.68 19.76L39.68 19.77Q37.69 19.87 36.74 20.02L36.74 20.03L36.62 19.90Q35.02 20.17 33.80 20.70L33.81 20.71L33.80 20.70Q30.39 22.24 30.28 26.92L30.28 26.93L30.16 26.81Q30.03 29.41 30.67 32.35L30.75 32.43L30.74 32.41Q31.62 36.46 35.24 37.64L35.32 37.72L35.15 37.55Q37.11 38.17 38.55 38.02L38.55 38.02L38.96 37.97L39.10 38.11Q39.11 37.92 39.30 37.96L39.33 37.99L39.36 38.02Q39.49 38.01 39.65 37.97L39.66 37.98L39.63 37.95Q42.26 37.69 43.63 37.11L43.71 37.20L40.10 33.63L40.05 33.57Q40.44 33.32 41.05 32.71L41.08 32.74L42.04 31.88L42.05 31.89Q43.83 33.89 45.81 35.94L45.70 35.84L45.84 35.98Q48.15 34.14 48.42 28.77L48.32 28.68L48.35 28.70Q48.37 27.73 48.37 26.82L48.45 26.90L48.37 26.82Q48.49 21.27 43.43 20.17L43.45 20.18L43.29 20.03Q42.02 19.74 39.50 19.59ZM52.41 41.79L52.34 41.71L52.26 41.63Q51.86 42.26 50.68 43.14L50.53 42.99L46.27 39.45L46.21 39.39Q43.74 40.62 39.48 40.66L39.36 40.54L39.42 40.60Q32.93 40.77 30.11 38.52L30.07 38.48L30.15 38.56Q28.20 36.61 27.74 33.64L27.88 33.78L27.78 33.68Q27.55 31.85 27.17 28.27L27.29 28.39L27.25 28.36Q27.30 27.68 27.19 25.93L27.08 25.83L27.07 25.81Q27.05 24.38 27.09 23.51L27.03 23.45L27.01 23.43Q27.04 20.30 28.79 18.74L28.92 18.87L28.80 18.74Q30.39 17.48 33.59 16.99L33.66 17.06L33.56 16.96Q36.00 16.55 38.90 16.62L39.04 16.76L39.06 16.78Q46.44 16.78 49.56 19.14L49.53 19.11L49.68 19.26Q51.72 21.26 51.45 26.17L51.52 26.24L51.50 26.22Q51.33 29.89 51.14 31.22L51.18 31.27L51.19 31.28Q50.55 35.78 48.23 38.10L48.16 38.03L48.12 37.99Q49.51 39.15 52.25 41.62ZM47.41 17.37L47.58 17.54L47.55 17.51Q45.48 16.73 38.97 16.24L39.06 16.33L39.02 16.29Q37.58 16.26 34.80 16.37L34.83 16.40L34.82 16.39Q30.59 16.62 28.35 18.60L28.42 18.67L28.33 18.59Q26.59 19.97 26.59 23.13L26.62 23.15L26.63 23.17Q26.63 24.00 26.78 25.71L26.83 25.76L26.81 25.75Q27.02 27.51 27.02 28.39L27.05 28.42L26.89 28.26Q27.21 30.18 27.59 33.76L27.57 33.73L27.49 33.66Q27.93 36.61 29.53 38.66L29.44 38.57L29.41 38.54Q29.79 39.42 31.01 40.56L31.11 40.66L30.97 40.53Q33.81 42.64 38.99 42.91L38.97 42.89L38.98 42.90Q39.34 42.92 41.74 43.03L41.73 43.03L41.61 42.90Q46.50 43.15 48.79 42.08L48.75 42.05L48.83 42.13Q49.62 42.73 54.34 46.30L54.43 46.40L54.30 46.27Q54.91 45.73 56.20 44.74L56.26 44.79L56.27 44.81Q55.42 44.14 54.62 43.46L54.62 43.46L52.99 42.02L53.04 41.92L53.01 41.90Q52.40 41.40 51.19 40.37L51.33 40.51L51.23 40.41Q53.18 37.95 53.18 33.42L53.17 33.41L53.04 33.28Q53.11 32.93 53.15 32.10L53.27 32.21L53.23 32.18Q53.19 31.26 53.19 30.84L53.26 30.91L53.16 30.81Q53.15 25.28 52.43 22.92L52.42 22.91L52.48 22.97Q52.09 21.67 51.22 20.61L51.18 20.57L51.27 20.66Q50.38 18.43 47.44 17.41ZM41.56 22.11L41.41 21.96L41.42 21.97Q45.66 22.05 47.48 23.65L47.48 23.65L47.38 23.54Q48.04 24.85 48.15 26.18L48.01 26.04L48.00 26.03Q48.19 27.40 48.11 28.77L48.17 28.83L48.17 28.83Q47.79 33.74 45.84 35.45L45.86 35.46L45.83 35.43Q44.58 34.18 42.06 31.44L42.00 31.38L42.07 31.44Q41.18 32.08 39.62 33.64L39.72 33.74L39.70 33.72Q40.15 34.21 41.29 35.39L41.33 35.43L41.35 35.56L41.32 35.53Q41.89 36.07 42.92 37.13L42.92 37.13L42.90 37.11Q41.92 37.38 39.60 37.69L39.59 37.69L38.99 37.61L38.62 37.66L38.57 37.66L38.65 37.73Q35.14 37.69 33.16 36.05L33.16 36.06L33.14 36.03Q32.13 33.95 32.16 30.83L32.09 30.75L32.09 30.76Q32.27 22.06 41.44 21.99Z"/><path fill="#222" d="M96.19 15.90L96.07 15.78L96.25 15.95Q98.04 20.71 98.61 25.89L98.58 25.86L98.67 25.95Q102.40 21.84 108.30 17.01L108.30 17.01L108.31 17.01Q111.50 16.70 114.13 15.90L113.96 15.74L107.52 21.48L107.42 21.37Q104.05 24.36 101.19 27.22L101.20 27.22L101.21 27.23Q109.20 36.40 114.26 41.12L114.18 41.04L114.27 41.13Q111.13 40.16 108.81 40.01L108.82 40.02L108.85 40.06Q103.14 34.72 98.83 28.89L98.76 28.82L98.79 28.85Q98.77 35.34 96.91 40.67L96.91 40.68L97.00 40.76Q96.68 40.71 96.19 40.91L96.27 40.98L96.33 41.24L96.21 41.12Q95.99 41.13 93.44 42.04L93.45 42.05L93.48 42.08Q96.39 35.47 96.05 28.01L96.13 28.09L96.18 28.14Q95.70 20.66 92.16 14.15L92.27 14.26L92.84 14.56L93.20 14.81L93.30 14.87L93.23 14.80Q93.88 15.11 96.09 15.79ZM96.44 15.58L96.37 15.50L96.50 15.64Q94.24 15.09 91.61 13.56L91.48 13.43L91.54 13.49Q95.87 20.83 95.87 29.78L95.81 29.71L95.75 29.66Q95.87 36.78 92.90 42.83L92.75 42.68L94.87 41.90L94.89 41.93Q94.42 42.86 93.73 44.16L93.73 44.16L93.86 44.29Q96.08 43.46 98.02 43.04L98.06 43.08L98.08 42.87L98.08 42.87Q98.33 42.82 98.90 42.66L98.90 42.66L98.96 42.72Q100.58 36.77 100.70 31.97L100.68 31.96L100.59 31.86Q102.71 34.41 104.54 36.27L104.50 36.23L104.60 36.34Q105.70 37.36 108.71 40.33L108.75 40.37L108.77 40.39L108.80 40.42Q109.86 41.29 111.72 42.89L111.66 42.82L111.73 42.89Q115.59 43.59 119.05 45.30L118.91 45.16L118.95 45.20Q109.68 36.66 103.44 29.24L103.41 29.21L103.38 29.17Q107.82 24.94 116.58 16.33L116.69 16.45L116.60 16.36Q114.05 17.50 112.04 17.88L112.05 17.90L112.01 17.85Q113.26 16.90 115.58 14.88L115.62 14.92L115.52 14.81Q111.46 16.28 108.11 16.47L108.14 16.50L108.13 16.49Q105.13 18.63 100.26 23.32L100.40 23.45L100.34 23.39Q99.99 20.83 99.41 18.28L99.36 18.23L99.39 18.25Q98.17 18.06 97.18 17.72L97.24 17.79L97.16 17.70Q97.03 17.04 96.46 15.59Z"/><path fill="#333" d="M18.44 19.67L18.45 19.68L18.47 19.70Q16.46 19.79 15.51 19.94L15.58 20.01L15.54 19.97Q13.96 20.25 12.74 20.79L12.57 20.62L12.70 20.74Q9.09 22.09 8.98 26.77L9.04 26.83L8.94 26.73Q9.00 29.53 9.64 32.46L9.57 32.39L9.55 32.37Q10.41 36.38 14.02 37.56L14.19 37.73L14.05 37.59Q16.03 38.24 17.48 38.09L17.39 38.00L17.95 38.11L17.79 37.94Q18.14 38.11 18.34 38.14L18.32 38.13L18.24 38.05Q18.37 38.03 18.53 37.99L18.51 37.97L18.50 37.97Q21.21 37.78 22.58 37.21L22.60 37.23L18.98 33.65L18.88 33.55Q19.41 33.43 20.02 32.82L19.88 32.68L20.75 31.73L20.79 31.77Q22.71 33.92 24.69 35.97L24.70 35.98L24.65 35.93Q26.96 34.09 27.23 28.73L27.18 28.68L27.26 28.76Q27.27 27.78 27.27 26.87L27.23 26.82L27.39 26.98Q27.29 21.21 22.22 20.10L22.26 20.14L22.27 20.15Q20.88 19.75 18.37 19.60ZM31.15 41.67L31.13 41.65L31.12 41.64Q30.63 42.18 29.45 43.05L29.45 43.05L24.99 39.32L25.01 39.34Q22.56 40.58 18.29 40.61L18.30 40.62L18.37 40.69Q11.81 40.79 8.99 38.55L8.93 38.48L8.84 38.39Q7.08 36.63 6.62 33.66L6.62 33.66L6.67 33.71Q6.49 31.94 6.11 28.36L6.16 28.41L6.15 28.40Q6.02 27.54 5.91 25.79L6.00 25.88L6.08 25.96Q5.78 24.26 5.82 23.38L5.91 23.48L5.89 23.46Q6.07 20.48 7.82 18.91L7.77 18.86L7.71 18.80Q9.36 17.60 12.56 17.10L12.50 17.05L12.40 16.94Q14.91 16.60 17.81 16.68L17.83 16.70L17.92 16.79Q25.31 16.79 28.43 19.15L28.42 19.14L28.51 19.23Q30.55 21.23 30.28 26.14L30.31 26.17L30.35 26.21Q30.10 29.80 29.90 31.14L29.96 31.19L29.89 31.12Q29.34 35.71 27.02 38.03L26.97 37.99L26.97 37.98Q28.38 39.17 31.12 41.64ZM26.40 17.51L26.28 17.38L26.38 17.48Q24.42 16.82 17.91 16.33L17.77 16.18L17.79 16.20Q16.52 16.35 13.75 16.46L13.61 16.33L13.63 16.35Q9.55 16.72 7.31 18.70L7.28 18.68L7.24 18.63Q5.62 20.14 5.62 23.30L5.46 23.14L5.55 23.22Q5.59 24.11 5.75 25.82L5.74 25.81L5.65 25.73Q5.78 27.41 5.78 28.29L5.93 28.44L5.84 28.35Q6.08 30.19 6.46 33.76L6.28 33.59L6.42 33.73Q6.81 36.63 8.41 38.68L8.40 38.68L8.30 38.58Q8.57 39.35 9.79 40.49L9.96 40.66L9.96 40.66Q12.55 42.53 17.73 42.79L17.77 42.84L17.75 42.81Q18.19 42.90 20.58 43.02L20.59 43.03L20.53 42.97Q25.37 43.16 27.65 42.09L27.68 42.12L27.60 42.04Q28.58 42.83 33.30 46.41L33.27 46.38L33.23 46.33Q33.79 45.76 35.09 44.77L35.21 44.89L35.02 44.70Q34.25 44.12 33.45 43.43L33.45 43.43L31.84 42.02L31.87 41.89L31.97 41.99Q31.22 41.36 30.00 40.33L30.09 40.42L30.08 40.40Q32.00 37.91 32.00 33.38L31.95 33.34L31.94 33.33Q32.07 33.03 32.11 32.19L32.11 32.20L32.12 32.21Q32.05 31.26 32.05 30.84L32.04 30.84L32.02 30.82Q32.02 25.30 31.30 22.94L31.37 23.01L31.27 22.91Q30.90 21.62 30.02 20.56L30.01 20.54L30.12 20.65Q29.20 18.40 26.27 17.38ZM20.37 22.05L20.40 22.09L20.34 22.03Q24.32 21.86 26.15 23.46L26.16 23.47L26.17 23.48Q26.77 24.73 26.88 26.06L27.02 26.19L26.92 26.09Q27.06 27.41 26.98 28.78L26.85 28.65L26.91 28.71Q26.62 33.71 24.68 35.42L24.64 35.39L24.61 35.36Q23.45 34.19 20.93 31.45L20.90 31.42L20.84 31.36Q20.13 32.17 18.57 33.73L18.53 33.69L18.56 33.72Q19.01 34.21 20.15 35.39L20.17 35.41L20.14 35.50L20.02 35.37Q20.62 35.94 21.65 37.00L21.76 37.11L21.81 37.16Q20.67 37.28 18.35 37.59L18.37 37.61L17.80 37.57L17.42 37.61L17.54 37.77L17.49 37.71Q14.05 37.74 12.07 36.10L12.10 36.14L11.99 36.03Q10.99 33.95 11.02 30.83L11.00 30.81L11.08 30.89Q11.15 22.08 20.32 22.01Z"/><path d="M15 30 C84 32,81 3,133 12" stroke="#777" fill="none"/><path fill="#444" d="M81.64 29.17L81.57 29.10L81.51 29.04Q79.82 29.06 78.58 30.49L78.48 30.39L78.44 30.35Q77.30 31.87 77.11 33.78L77.09 33.75L77.14 33.81Q76.94 35.89 78.03 36.86L77.93 36.77L77.97 36.81Q79.11 37.83 81.21 37.72L81.06 37.58L81.13 37.64Q83.14 37.40 84.24 36.72L84.41 36.89L84.42 36.90Q85.56 35.79 85.56 34.23L85.38 34.05L85.42 34.09Q85.45 33.74 85.37 33.36L85.39 33.38L85.38 33.37Q85.57 31.80 84.46 30.45L84.45 30.44L84.28 30.27Q83.32 29.06 81.65 29.18ZM81.12 40.18L81.18 40.24L81.18 40.24Q76.69 40.13 75.28 39.37L75.28 39.37L75.30 39.39Q74.31 38.67 74.12 36.96L74.15 36.99L74.21 37.04Q74.20 36.39 74.24 35.67L74.16 35.58L74.17 35.59Q74.37 34.69 74.37 34.23L74.23 34.09L74.19 34.05Q74.81 31.36 74.96 30.68L74.94 30.66L74.91 30.62Q75.30 28.61 76.13 27.20L76.12 27.19L76.14 27.21Q78.85 22.88 84.79 16.52L84.80 16.53L84.76 16.49Q87.46 16.22 89.67 15.42L89.61 15.36L89.65 15.41Q82.85 22.92 79.65 27.14L79.62 27.11L79.68 27.17Q80.51 26.52 81.80 26.52L81.81 26.52L81.96 26.67Q85.19 26.59 86.71 28.53L86.66 28.48L86.80 28.62Q88.03 30.15 88.37 33.69L88.40 33.72L88.38 33.70Q88.43 34.39 88.43 35.00L88.56 35.13L88.52 35.09Q88.57 38.27 86.36 39.34L86.17 39.14L86.26 39.23Q85.07 39.87 81.18 40.25ZM83.45 42.63L83.48 42.66L83.51 42.68Q84.77 42.62 86.75 42.69L86.75 42.69L86.76 42.70Q88.30 42.68 89.86 41.96L89.97 42.06L90.00 42.10Q91.08 41.27 91.08 39.48L91.12 39.52L90.97 39.38Q91.09 39.00 90.92 38.01L90.92 38.01L90.95 38.04Q90.75 37.03 90.75 36.57L90.66 36.48L90.77 36.58Q89.73 31.70 88.13 29.79L88.18 29.85L88.17 29.84Q88.07 29.70 87.92 29.47L87.94 29.49L87.69 29.31L87.68 29.35L87.60 29.27Q87.30 28.82 86.69 27.86L86.72 27.89L86.71 27.89Q85.78 26.91 83.80 26.45L83.75 26.41L83.68 26.34Q84.98 24.82 87.95 21.13L87.86 21.04L92.16 15.82L92.10 15.76Q90.51 16.61 88.12 17.37L88.23 17.48L88.30 17.55Q89.18 16.53 90.97 14.55L90.99 14.57L90.85 14.43Q88.53 15.58 84.65 16.15L84.53 16.03L84.68 16.18Q78.85 21.96 75.88 26.91L75.99 27.02L75.96 26.99Q74.42 29.49 73.85 35.73L73.85 35.73L73.82 35.70Q73.78 36.31 73.86 37.26L73.91 37.31L73.94 37.34Q74.01 39.09 75.12 40.00L74.98 39.87L75.08 39.97Q75.35 40.01 75.31 40.05L75.28 40.02L75.36 40.10Q75.82 41.08 76.61 41.50L76.63 41.51L76.55 41.44Q77.96 42.09 79.90 42.28L79.86 42.23L79.85 42.23Q80.03 42.41 83.53 42.71ZM83.24 31.41L83.19 31.37L83.21 31.39Q83.74 31.23 84.69 31.73L84.71 31.74L84.64 31.68Q85.05 32.69 85.05 33.34L85.07 33.36L85.04 33.33Q85.31 35.28 84.36 36.27L84.40 36.30L84.37 36.28Q83.27 36.96 81.17 37.27L81.14 37.24L81.22 37.31Q79.82 37.36 79.28 37.09L79.14 36.95L79.24 37.05Q78.98 36.52 78.98 36.21L79.01 36.24L78.94 36.17Q78.69 32.88 81.62 31.58L81.71 31.67L81.78 31.74Q82.38 31.24 83.14 31.32Z"/><path fill="#333" d="M134.54 23.01L134.62 23.10L134.58 23.05Q132.68 25.69 130.02 31.32L130.00 31.31L128.06 35.60L128.13 35.68Q127.28 37.60 125.94 39.85L125.83 39.73L125.91 39.81Q126.29 39.73 124.61 39.77L124.69 39.85L124.71 39.87Q124.61 39.77 123.35 39.77L123.37 39.79L123.51 39.93Q122.77 38.43 119.84 31.27L119.83 31.25L119.78 31.21Q117.60 25.83 115.50 22.82L115.55 22.87L115.57 22.89Q116.21 25.85 116.21 29.01L116.20 29.00L116.26 29.06Q116.29 35.60 113.32 41.16L113.29 41.13L113.37 41.20Q112.00 41.51 109.64 42.24L109.63 42.23L109.59 42.18Q113.22 36.45 113.22 29.21L113.26 29.26L113.22 29.22Q113.39 20.45 107.99 13.48L107.84 13.33L107.97 13.46Q109.47 14.05 111.83 14.73L111.94 14.84L111.87 14.77Q118.87 21.47 124.96 34.79L124.95 34.78L125.07 34.90Q128.45 27.77 130.65 24.27L130.83 24.44L130.73 24.34Q134.28 18.53 138.24 15.06L138.27 15.09L138.28 15.10Q139.50 14.83 141.86 14.07L141.99 14.20L141.95 14.17Q136.99 20.82 136.99 29.42L136.99 29.43L136.98 29.42Q136.86 35.95 140.28 41.47L140.30 41.49L140.31 41.50Q138.99 41.20 136.24 40.59L136.30 40.65L136.25 40.60Q133.86 35.77 133.86 29.80L133.88 29.82L133.92 29.86Q133.87 26.38 134.55 23.03ZM136.12 41.04L136.06 40.98L136.05 40.97Q136.79 41.14 138.24 41.41L138.10 41.27L138.16 41.33Q138.75 42.22 139.70 43.70L139.62 43.62L139.57 43.57Q141.72 44.01 145.18 45.23L145.20 45.24L145.26 45.30Q138.99 38.96 138.99 29.14L138.87 29.01L138.96 29.10Q138.99 21.41 143.37 15.28L143.22 15.13L141.18 15.98L141.10 15.90Q142.03 14.29 142.68 13.41L142.70 13.44L142.84 13.57Q140.93 14.18 138.30 14.71L138.34 14.74L138.27 14.68Q131.48 20.75 125.43 33.35L125.46 33.38L125.45 33.38Q120.35 22.49 115.40 17.23L115.36 17.20L115.39 17.23Q114.97 17.11 114.40 17.00L114.28 16.87L113.17 15.69L113.07 15.59Q112.62 15.06 111.93 14.45L111.84 14.36L111.87 14.39Q108.76 13.33 106.97 12.61L107.03 12.68L107.01 12.65Q113.06 19.92 113.06 29.33L113.06 29.32L113.12 29.39Q113.14 37.02 108.99 42.88L108.94 42.83L108.80 42.69Q109.50 42.48 110.80 42.06L110.79 42.05L110.82 42.08Q110.83 42.47 109.42 44.57L109.35 44.49L109.25 44.39Q111.05 43.91 114.55 43.15L114.73 43.33L114.63 43.23Q118.37 36.20 118.18 28.43L118.14 28.39L118.11 28.36Q119.69 32.42 123.16 40.30L123.15 40.28L123.24 40.38Q123.35 40.18 123.58 40.18L123.66 40.26L124.19 40.26L124.22 40.29Q124.70 41.00 125.50 42.30L125.47 42.26L125.36 42.16Q127.09 42.25 127.09 42.25L126.97 42.13L127.02 42.18Q127.99 42.12 128.64 42.20L128.76 42.32L128.64 42.20Q130.27 38.23 133.62 30.24L133.54 30.16L133.58 30.20Q133.52 35.70 136.11 41.03Z"/><path d="M9 22 C71 38,63 25,135 29" stroke="#333" fill="none"/></svg>