<svg xmlns="http://www.w3.org/2000/svg" width="150" height="50" viewBox="0,0,150,50"><path fill="#222" d="M95.98 34.64L96.00 34.66L96.00 34.65Q95.99 38.22 92.83 39.52L92.91 39.60L92.87 39.56Q91.03 40.42 86.61 40.57L86.67 40.63L86.49 40.45Q81.82 40.69 79.57 39.51L79.45 39.39L79.62 39.56Q77.68 38.15 77.83 34.80L77.82 34.79L77.86 34.83Q77.93 34.25 78.12 32.27L78.00 32.15L78.09 32.24Q78.17 30.61 78.17 29.62L78.15 29.59L78.23 29.68Q78.17 21.62 73.98 14.20L74.08 14.30L73.92 14.14Q75.18 14.90 78.15 15.96L78.17 15.98L78.14 15.95Q81.11 22.77 81.11 30.16L81.00 30.05L80.98 30.03Q81.01 30.66 80.91 31.84L80.93 31.86L80.88 31.81Q80.78 32.99 80.78 33.60L80.78 33.59L80.77 33.58Q80.85 35.95 82.41 36.94L82.45 36.98L82.46 36.99Q84.01 37.71 86.98 37.71L86.93 37.66L87.02 37.74Q89.59 37.69 91.23 36.51L91.26 36.54L91.33 36.61Q93.15 35.23 93.00 32.72L93.02 32.74L92.92 32.64Q92.89 31.32 92.89 29.99L92.92 30.02L92.79 29.88Q92.87 22.93 95.27 16.42L95.29 16.43L97.49 15.89L97.39 15.79Q98.41 15.55 99.51 15.10L99.55 15.14L99.44 15.02Q95.82 22.25 95.82 29.83L95.78 29.79L95.73 29.74Q95.79 30.64 95.93 32.28L96.01 32.36L96.01 32.36Q96.07 33.93 96.07 34.72ZM98.26 35.66L98.10 35.50L98.27 35.67Q97.21 30.54 97.94 25.44L97.96 25.46L98.02 25.52Q98.76 20.32 101.16 15.94L101.25 16.04L101.18 15.96Q100.52 16.22 99.07 16.86L99.00 16.79L99.17 16.96Q99.46 16.04 100.26 14.48L100.20 14.41L100.23 14.45Q96.72 15.62 94.81 15.96L94.94 16.09L94.99 16.13Q92.60 22.61 92.60 29.89L92.52 29.81L92.55 29.83Q92.54 31.20 92.62 32.61L92.58 32.57L92.70 32.69Q92.74 34.97 90.95 36.19L90.97 36.21L91.01 36.26Q89.56 37.35 87.05 37.39L87.04 37.39L86.96 37.30Q84.13 37.29 82.69 36.53L82.70 36.55L82.77 36.62Q82.62 36.04 82.54 35.58L82.54 35.58L82.65 35.70Q82.65 35.23 82.76 34.74L82.61 34.59L82.68 34.66Q83.00 32.43 83.00 30.11L82.93 30.04L82.95 30.05Q83.00 24.28 81.47 18.38L81.31 18.22L81.47 18.37Q80.59 18.10 79.18 17.76L79.30 17.88L79.34 17.91Q78.88 16.55 78.43 15.63L78.40 15.61L78.41 15.61Q75.69 14.84 73.29 13.47L73.27 13.45L73.34 13.52Q77.88 21.03 77.88 29.75L77.88 29.74L77.83 29.69Q77.98 31.48 77.83 33.19L77.68 33.05L77.67 33.04Q77.42 35.42 77.50 36.60L77.59 36.69L77.53 36.63Q77.81 38.70 79.07 39.84L79.04 39.81L79.06 39.84Q79.94 42.20 84.58 42.58L84.71 42.70L84.72 42.71Q86.67 42.72 88.80 42.80L88.91 42.91L88.78 42.78Q94.14 42.96 96.92 42.01L96.94 42.03L97.05 42.14Q98.68 41.30 98.68 39.24L98.53 39.09L98.54 39.10Q98.59 38.01 98.14 35.54Z"/><path d="M13 38 C72 19,65 41,144 34" stroke="#111" fill="none"/><path d="M9 36 C85 10,91 39,148 37" stroke="#666" fill="none"/><path fill="#222" d="M117.09 40.21L116.99 40.11L117.04 40.16Q115.11 40.02 113.44 40.59L113.59 40.75L113.61 40.76Q114.11 37.12 114.22 34.00L114.21 33.99L114.14 33.91Q114.20 30.82 113.97 27.16L114.07 27.26L114.12 27.30Q112.61 26.82 111.85 26.44L111.88 26.47L111.53 23.50L111.41 23.38Q112.20 24.05 113.80 24.62L113.77 24.60L113.79 24.62Q113.64 22.56 113.22 19.82L113.30 19.90L113.14 19.74Q115.50 20.50 117.14 20.35L117.14 20.35L117.01 24.95L117.10 25.03Q118.34 24.79 119.67 24.29L119.69 24.31L119.75 24.37Q119.73 25.30 119.50 27.05L119.42 26.97L119.41 26.96Q118.00 27.41 116.97 27.41L116.99 27.44L116.90 27.34Q117.01 29.62 117.01 33.89L116.87 33.75L117.04 33.91Q117.02 38.05 117.10 40.22ZM120.11 23.74L120.27 23.90L120.18 23.81Q119.88 23.89 119.27 24.11L119.36 24.20L119.70 21.39L119.61 21.30Q118.84 21.64 117.44 21.87L117.46 21.89L117.41 21.84Q117.40 21.14 117.55 19.77L117.55 19.77L117.59 19.81Q117.10 20.01 116.53 20.01L116.49 19.97L116.56 20.04Q114.27 19.88 112.64 19.16L112.66 19.19L112.63 19.16Q113.18 21.69 113.45 24.16L113.39 24.10L113.52 24.24Q112.50 23.75 110.98 22.72L110.95 22.69L111.06 22.79Q111.42 24.11 111.65 26.81L111.71 26.88L111.53 26.70Q111.99 26.92 113.17 27.34L113.31 27.49L113.27 27.44Q113.37 28.15 113.41 29.56L113.32 29.48L113.69 29.50L113.81 29.55L113.75 29.48Q113.81 30.73 113.81 31.91L113.95 32.05L113.86 31.96Q113.80 36.85 113.00 41.19L113.12 41.30L113.06 41.25Q113.16 41.04 115.11 40.51L115.18 40.59L115.25 40.66Q115.32 41.38 115.21 42.75L115.04 42.58L115.05 42.59Q115.83 42.49 116.63 42.49L116.67 42.53L116.72 42.59Q118.44 42.59 120.08 43.17L120.06 43.14L120.06 43.15Q118.65 37.35 118.84 29.43L118.89 29.49L121.31 29.12L121.38 29.20Q121.39 28.22 121.46 27.19L121.42 27.15L121.60 25.12L121.73 25.24Q121.04 25.40 119.86 25.85L119.93 25.92L120.01 26.00Q120.17 24.53 120.10 24.18L120.21 24.30L120.09 24.18Q120.20 24.10 120.28 23.91Z"/><path fill="#222" d="M18.45 38.90L18.46 38.91L18.48 38.93Q20.41 36.60 25.17 29.33L25.03 29.19L25.07 29.22Q29.11 23.02 31.96 19.75L31.95 19.74L32.13 19.92Q29.93 20.11 27.83 20.11L27.93 20.21L27.89 20.17Q22.56 20.09 18.56 18.30L18.58 18.32L18.53 18.27Q17.97 16.45 17.28 14.89L17.32 14.92L17.24 14.85Q21.76 16.97 27.43 17.08L27.42 17.07L27.47 17.12Q32.66 17.25 37.84 15.34L37.84 15.35L37.87 15.38Q37.32 16.05 37.02 16.85L37.05 16.88L36.61 18.61L36.54 18.54Q33.52 22.22 29.53 28.05L29.40 27.93L26.18 32.85L26.11 32.77Q24.39 35.17 22.56 37.46L22.62 37.51L22.60 37.50Q25.92 36.89 29.23 36.97L29.31 37.04L29.19 36.93Q32.62 37.12 35.78 38.03L35.76 38.02L36.35 39.71L36.28 39.64Q36.53 40.46 36.88 41.30L36.91 41.33L36.85 41.27Q32.19 39.69 27.05 39.88L27.00 39.84L26.98 39.82Q21.93 40.09 17.43 42.11L17.34 42.02L17.49 42.17Q17.83 41.06 18.55 39.00ZM16.81 42.78L16.74 42.71L16.89 42.86Q17.99 42.13 18.79 41.87L18.88 41.95L18.74 41.82Q18.61 42.72 17.93 44.24L17.92 44.23L17.85 44.17Q23.53 42.00 29.51 42.23L29.56 42.28L29.55 42.28Q35.85 42.48 40.87 45.26L40.92 45.31L40.89 45.27Q39.42 42.81 38.62 40.64L38.79 40.82L38.62 40.64Q38.24 40.53 36.72 39.96L36.77 40.01L36.64 39.88Q36.48 39.15 36.06 37.67L36.05 37.66L36.04 37.64Q31.91 36.48 26.80 36.67L26.74 36.61L26.77 36.64Q28.85 33.85 32.39 28.29L32.44 28.34L32.50 28.39Q36.09 22.62 37.99 20.07L38.12 20.20L38.02 20.10Q38.57 18.75 39.60 16.04L39.61 16.05L39.58 16.02Q38.97 16.44 37.52 17.04L37.54 17.06L37.42 16.95Q37.79 16.17 38.51 14.65L38.42 14.56L38.57 14.71Q33.22 16.82 27.51 16.74L27.44 16.67L27.43 16.66Q21.46 16.56 16.51 14.04L16.45 13.99L16.46 13.99Q17.75 16.50 18.47 18.75L18.32 18.59L18.43 18.70Q19.51 19.21 20.31 19.44L20.31 19.44L20.34 19.47Q20.57 20.12 20.84 21.57L20.78 21.51L20.83 21.56Q24.55 22.62 29.43 22.43L29.41 22.41L29.40 22.40Q27.02 25.62 23.71 30.61L23.72 30.62L18.28 39.03L18.31 39.06Q17.74 40.13 16.71 42.68Z"/><path fill="#111" d="M54.23 26.84L54.19 26.81L54.27 26.88Q55.98 26.96 57.81 26.96L57.88 27.03L57.83 26.98Q59.54 26.90 61.37 26.75L61.36 26.74L61.49 26.87Q61.39 27.54 61.39 28.26L61.26 28.13L61.32 29.52L61.37 29.57Q59.07 29.63 54.31 29.74L54.30 29.73L54.22 29.65Q54.18 35.55 53.04 40.54L53.10 40.60L53.03 40.53Q50.94 41.33 49.45 42.13L49.45 42.13L49.34 42.02Q51.72 35.26 51.45 28.14L51.52 28.21L51.34 28.03Q51.24 21.04 48.58 14.38L48.48 14.28L48.57 14.37Q52.13 16.79 56.89 17.02L57.02 17.15L56.88 17.01Q61.65 17.29 65.80 15.54L65.71 15.44L65.72 15.45Q65.39 16.23 65.16 17.03L65.24 17.11L64.84 18.80L64.85 18.81Q62.08 19.85 59.11 20.00L59.02 19.91L59.05 19.94Q56.20 20.18 53.35 19.45L53.37 19.47L53.21 19.31Q53.96 22.77 54.15 26.77ZM66.32 14.72L66.34 14.74L66.36 14.76Q61.75 16.89 56.87 16.58L56.98 16.69L56.99 16.70Q51.69 16.42 47.95 13.56L47.76 13.37L47.88 13.49Q50.70 20.39 51.01 28.00L51.05 28.04L50.97 27.96Q51.49 36.09 48.97 42.87L48.82 42.72L48.94 42.83Q49.47 42.30 50.84 41.65L50.93 41.74L50.94 41.76Q50.76 42.53 50.19 44.05L50.13 43.99L50.22 44.08Q52.46 42.93 55.36 42.44L55.44 42.52L55.30 42.38Q55.96 37.56 56.15 31.85L56.20 31.90L56.11 31.81Q57.89 31.76 59.72 31.76L59.81 31.86L59.82 31.87Q61.64 31.89 63.47 32.08L63.40 32.02L63.32 31.94Q63.36 31.14 63.36 30.23L63.19 30.05L63.21 28.17L63.26 28.22Q62.54 28.38 61.70 28.38L61.67 28.35L61.58 28.26Q61.58 27.38 61.65 26.35L61.80 26.50L61.78 26.48Q60.39 26.64 58.98 26.64L58.90 26.56L59.01 26.68Q57.59 26.67 56.22 26.63L56.11 26.52L56.17 24.44L56.10 24.37Q56.09 23.30 55.97 22.23L55.87 22.13L55.95 22.20Q56.98 22.32 57.96 22.32L57.88 22.23L57.85 22.20Q62.76 22.36 66.38 20.46L66.32 20.39L66.40 20.48Q66.88 18.63 67.79 16.01L67.66 15.87L67.77 15.98Q66.51 16.85 65.71 17.20L65.70 17.19L65.64 17.13Q65.91 16.36 66.40 14.80Z"/></svg>